<svg xmlns="http://www.w3.org/2000/svg" xmlns:xlink="http://www.w3.org/1999/xlink" width="64" zoomAndPan="magnify" viewBox="0 0 48 48" height="64" preserveAspectRatio="xMidYMid meet" version="1.0"><path fill="#cdc500" d="M 1.867188 24.289062 C 1.867188 12.558594 11.699219 3.117188 23.90625 3.117188 C 36.117188 3.117188 45.949219 12.558594 45.949219 24.289062 C 45.949219 36.015625 36.117188 45.457031 23.90625 45.457031 C 11.699219 45.457031 1.867188 36.015625 1.867188 24.289062 Z M 1.867188 24.289062 " fill-opacity="1" fill-rule="evenodd"/><path fill="#ede21f" d="M 1.867188 22.546875 C 1.867188 10.820312 11.699219 1.378906 23.90625 1.378906 C 36.117188 1.378906 45.949219 10.820312 45.949219 22.546875 C 45.949219 34.277344 36.117188 43.722656 23.90625 43.722656 C 11.699219 43.722656 1.867188 34.277344 1.867188 22.546875 Z M 1.867188 22.546875 " fill-opacity="1" fill-rule="evenodd"/><path fill="#ffffff" d="M 44.933594 22.617188 L 37.113281 18.285156 L 37.113281 20.878906 L 25.71875 20.878906 L 25.71875 9.933594 L 28.417969 9.933594 L 23.90625 2.429688 L 19.394531 9.933594 L 22.09375 9.933594 L 22.09375 20.878906 L 10.703125 20.878906 L 10.703125 18.285156 L 2.882812 22.617188 L 10.703125 26.957031 L 10.703125 24.355469 L 22.09375 24.355469 L 22.09375 35.304688 L 19.394531 35.304688 L 23.90625 42.816406 L 28.417969 35.304688 L 25.71875 35.304688 L 25.71875 24.355469 L 37.113281 24.355469 L 37.113281 26.957031 Z M 44.933594 22.617188 " fill-opacity="1" fill-rule="evenodd"/><path fill="#ede21f" d="M 17.875 27.648438 C 15.636719 27.648438 13.960938 26.019531 13.960938 24.566406 L 13.960938 24.238281 C 14.058594 22.785156 15.035156 21.527344 16.453125 21.019531 L 16.59375 20.984375 L 16.59375 20.761719 C 16.589844 18.5 18.230469 16.542969 20.527344 16.0625 C 22.828125 15.582031 25.164062 16.707031 26.136719 18.765625 L 26.234375 18.964844 L 26.421875 18.839844 C 26.792969 18.601562 27.195312 18.464844 27.636719 18.4375 C 28.078125 18.40625 28.496094 18.488281 28.894531 18.679688 C 29.6875 19.066406 30.199219 19.832031 30.230469 20.683594 L 30.230469 20.839844 L 30.398438 20.839844 C 32.238281 21.042969 33.679688 22.453125 33.859375 24.226562 L 33.859375 24.554688 C 33.859375 26.007812 32.1875 27.636719 29.949219 27.636719 Z M 17.875 27.648438 " fill-opacity="1" fill-rule="evenodd"/><path fill="#ffffff" d="M 21.578125 16.640625 C 23.253906 16.640625 24.777344 17.582031 25.472656 19.050781 L 25.921875 20.003906 L 26.804688 19.410156 C 27.066406 19.242188 27.351562 19.144531 27.660156 19.125 C 27.96875 19.101562 28.265625 19.160156 28.542969 19.296875 C 29.101562 19.566406 29.460938 20.105469 29.484375 20.703125 L 29.484375 21.480469 L 30.296875 21.539062 C 31.757812 21.722656 32.910156 22.832031 33.09375 24.238281 L 33.09375 24.566406 C 33.09375 25.675781 31.703125 26.953125 29.90625 26.953125 L 17.875 26.953125 C 16.078125 26.953125 14.6875 25.664062 14.6875 24.566406 L 14.6875 24.238281 C 14.789062 23.097656 15.554688 22.113281 16.664062 21.695312 L 17.339844 21.503906 L 17.339844 20.746094 C 17.335938 19.660156 17.785156 18.613281 18.585938 17.847656 C 19.382812 17.074219 20.46875 16.640625 21.605469 16.640625 M 21.605469 15.25 C 18.550781 15.253906 16.035156 17.5625 15.898438 20.492188 C 14.375 21.195312 13.371094 22.628906 13.269531 24.246094 L 13.269531 24.574219 C 13.269531 26.585938 15.441406 28.351562 17.902344 28.351562 L 29.941406 28.351562 C 32.410156 28.351562 34.578125 26.585938 34.578125 24.574219 L 34.578125 24.246094 C 34.414062 22.269531 32.917969 20.636719 30.898438 20.226562 C 30.71875 19.320312 30.125 18.546875 29.28125 18.109375 C 28.4375 17.675781 27.433594 17.632812 26.550781 17.992188 C 25.523438 16.300781 23.644531 15.261719 21.605469 15.257812 Z M 21.605469 15.25 " fill-opacity="1" fill-rule="evenodd"/></svg>