<svg xmlns="http://www.w3.org/2000/svg" xmlns:xlink="http://www.w3.org/1999/xlink" width="85" zoomAndPan="magnify" viewBox="0 0 63.75 63.749997" height="85" preserveAspectRatio="xMidYMid meet" version="1.0"><path fill="#0056b3" d="M 1.867188 32.929688 C 1.867188 17.027344 15.195312 4.226562 31.75 4.226562 C 48.304688 4.226562 61.632812 17.027344 61.632812 32.929688 C 61.632812 48.832031 48.304688 61.632812 31.75 61.632812 C 15.195312 61.632812 1.867188 48.832031 1.867188 32.929688 Z M 1.867188 32.929688 " fill-opacity="1" fill-rule="evenodd"/><path fill="#4cc7f4" d="M 1.867188 30.570312 C 1.867188 14.667969 15.195312 1.867188 31.75 1.867188 C 48.304688 1.867188 61.632812 14.667969 61.632812 30.570312 C 61.632812 46.472656 48.304688 59.277344 31.75 59.277344 C 15.195312 59.277344 1.867188 46.472656 1.867188 30.570312 Z M 1.867188 30.570312 " fill-opacity="1" fill-rule="evenodd"/><path fill="#ffffff" d="M 60.257812 30.664062 L 49.652344 24.789062 L 49.652344 28.308594 L 34.207031 28.308594 L 34.207031 13.46875 L 37.867188 13.46875 L 31.75 3.292969 L 25.632812 13.46875 L 29.292969 13.46875 L 29.292969 28.308594 L 13.847656 28.308594 L 13.847656 24.789062 L 3.242188 30.664062 L 13.847656 36.550781 L 13.847656 33.023438 L 29.292969 33.023438 L 29.292969 47.863281 L 25.632812 47.863281 L 31.75 58.050781 L 37.867188 47.863281 L 34.207031 47.863281 L 34.207031 33.023438 L 49.652344 33.023438 L 49.652344 36.550781 Z M 60.257812 30.664062 " fill-opacity="1" fill-rule="evenodd"/><path fill="#4cc7f4" d="M 23.570312 37.484375 C 20.535156 37.484375 18.265625 35.277344 18.265625 33.304688 L 18.265625 32.863281 C 18.398438 30.894531 19.722656 29.1875 21.644531 28.496094 L 21.832031 28.449219 L 21.832031 28.148438 C 21.828125 25.082031 24.050781 22.429688 27.167969 21.777344 C 30.285156 21.125 33.453125 22.652344 34.773438 25.441406 L 34.902344 25.714844 L 35.160156 25.542969 C 35.660156 25.21875 36.207031 25.035156 36.804688 24.996094 C 37.402344 24.957031 37.972656 25.066406 38.511719 25.328125 C 39.585938 25.847656 40.28125 26.886719 40.324219 28.042969 L 40.324219 28.253906 L 40.550781 28.253906 C 43.046875 28.53125 45 30.441406 45.242188 32.84375 L 45.242188 33.289062 C 45.242188 35.261719 42.976562 37.46875 39.941406 37.46875 Z M 23.570312 37.484375 " fill-opacity="1" fill-rule="evenodd"/><path fill="#ffffff" d="M 28.589844 22.5625 C 30.863281 22.5625 32.929688 23.839844 33.871094 25.828125 L 34.480469 27.121094 L 35.679688 26.316406 C 36.03125 26.085938 36.417969 25.957031 36.835938 25.929688 C 37.257812 25.898438 37.65625 25.976562 38.035156 26.160156 C 38.792969 26.527344 39.28125 27.257812 39.3125 28.070312 L 39.3125 29.121094 L 40.410156 29.203125 C 42.394531 29.453125 43.953125 30.957031 44.203125 32.863281 L 44.203125 33.308594 C 44.203125 34.808594 42.316406 36.542969 39.882812 36.542969 L 23.570312 36.542969 C 21.132812 36.542969 19.25 34.796875 19.25 33.308594 L 19.25 32.863281 C 19.386719 31.316406 20.425781 29.980469 21.929688 29.414062 L 22.84375 29.15625 L 22.84375 28.128906 C 22.839844 26.65625 23.449219 25.238281 24.535156 24.195312 C 25.617188 23.148438 27.089844 22.5625 28.628906 22.5625 M 28.628906 20.675781 C 24.484375 20.679688 21.078125 23.808594 20.890625 27.78125 C 18.828125 28.734375 17.464844 30.679688 17.324219 32.875 L 17.324219 33.316406 C 17.324219 36.042969 20.269531 38.4375 23.609375 38.4375 L 39.929688 38.4375 C 43.277344 38.4375 46.214844 36.042969 46.214844 33.316406 L 46.214844 32.875 C 45.992188 30.195312 43.964844 27.976562 41.226562 27.421875 C 40.984375 26.195312 40.179688 25.144531 39.035156 24.554688 C 37.890625 23.964844 36.53125 23.90625 35.335938 24.394531 C 33.941406 22.101562 31.390625 20.691406 28.628906 20.6875 Z M 28.628906 20.675781 " fill-opacity="1" fill-rule="evenodd"/></svg>